# xmcd CD database file
#
# Track frame offsets:
#	225
#	13217
#	27437
#	40963
#	53985
#	68649
#	85126
#	97674
#	111252
#	130069
#	156142
#	176494
#	190918
#	212138
#	227055
#	242056
#	256751
#	270247
#	285986
#	300447
#
# Disc length: 4194 seconds
#
# Revision: 0
# Processed by: cddbd v1.4PL0 Copyright (c) Steve Scherf et al.
# Submitted via: CDex 1.50Beta7
#
DISCID=04105f14
DTITLE=Duke Ellington - Take the "A" train
DYEAR=1900
DGENRE=Jazz
TTITLE0=Take the "A" train
TTITLE1=Perdido
TTITLE2=Harlem air shuffle
TTITLE3=Ring dem bells
TTITLE4=Rockin' in rhytm
TTITLE5=Sphisticated lady
TTITLE6=Mood indigo
TTITLE7=Cotton club stomp
TTITLE8=Creole love call
TTITLE9=Taffy twist
TTITLE10=Black and tan fantasy
TTITLE11=Jump for joy
TTITLE12=What am I here for?
TTITLE13=I got it bad (and that ain't good)
TTITLE14=Misty morning
TTITLE15=Solitude
TTITLE16=Harlem air shaft
TTITLE17=Echoes of the jungle
TTITLE18=Cotton tail
TTITLE19=I let a song go out of my heart
EXTD=
EXTT0=
EXTT1=
EXTT2=
EXTT3=
EXTT4=
EXTT5=
EXTT6=
EXTT7=
EXTT8=
EXTT9=
EXTT10=
EXTT11=
EXTT12=
EXTT13=
EXTT14=
EXTT15=
EXTT16=
EXTT17=
EXTT18=
EXTT19=
PLAYORDER=
